<?xml version="1.0" standalone="no"?>
<!DOCTYPE svg PUBLIC "-//W3C//DTD SVG 1.1//EN" "http://www.w3.org/Graphics/SVG/1.1/DTD/svg11.dtd">
<svg xmlns="http://www.w3.org/2000/svg">
<metadata>Generated by Fontastic.me</metadata>
<defs>
<font id="senar" horiz-adv-x="512">
<font-face font-family="senar" units-per-em="512" ascent="480" descent="-32"/>
<missing-glyph horiz-adv-x="512" />

<glyph unicode="&#97;" d="M167 272c-45 0-81-35-81-80 0-45 36-81 81-81 44 0 81 36 81 81 0 45-37 80-81 80z m0-150c-39 0-70 32-70 70 0 38 31 70 70 70 38 0 70-32 70-70 0-38-32-70-70-70z m280 61l0 72c0 15-13 28-28 28l-44 0 0 50c0 0 0 0 0 1-1 1-1 6 1 9 2 2 4 2 7 2 3 0 5 3 5 5 0 3-2 5-5 5-8 0-12-3-15-6-4-6-4-15-3-17l0-49-57 0-39 115c0 2-2 3-4 3l-137 0c-2 0-4-2-4-4l0-4c0-1 2-3 4-3l19 0-24-96c-38-17-65-55-65-99 0-2 2-4 4-4l4 0c1 0 3 2 3 4 0 53 44 97 98 97 14 0 28-3 40-9 1 0 1 0 2 0 33-16 55-50 55-88l0-20c0-2 1-3 4-3l100 0c-1-5-2-9-2-13 0-24 20-44 44-44 24 0 44 20 44 44 0 8-3 17-7 24z m-312 115l22 92 103 0 37-107-23 0-10 20 11 7c2 2 3 5 2 7-1 2-4 3-6 1l-34-16c-2-2-3-5-2-7 1-2 3-3 5-3 0 0 1 0 2 1l14 7 7-17-33 0c-5 3-10 6-16 9l-7 59c0 1-1 2-2 3-1 1-3 1-4 0l-12-3c-1-1-3-2-3-4l-4-45c-5 1-10 1-15 1-11 0-22-2-32-5z m69-2c-4 2-9 3-13 4l4 43 3 1z m71-114l0 13c0 30-13 57-33 77l177 0c8 0 14-5 16-12l-25 0c-3 0-5-2-5-6 0-3 2-5 5-5l25 0 0-11-25 0c-3 0-6-3-6-6 0-3 3-5 6-5l25 0 0-33c-7 5-15 9-25 9-16 0-29-8-37-21z m135-56c-19 0-33 15-33 33 0 18 14 33 33 33 18 0 33-15 33-33 0-19-15-33-33-33z m0 50c-9 0-17-8-17-17 0-9 8-17 17-17 9 0 17 8 17 17 0 9-8 17-17 17z m0-23c-3 0-6 3-6 6 0 3 3 6 6 6 3 0 6-3 6-6 0-3-3-6-6-6z m-243 89c-29 0-52-23-52-52 0-28 23-51 52-51 28 0 51 23 51 51 0 29-23 52-51 52z m0-96c-25 0-45 20-45 44 0 25 20 45 45 45 24 0 44-20 44-45 0-24-20-44-44-44z"/>
<glyph unicode="&#98;" d="M175 345c-72 69-153 76-175 76l0-20c20-1 95-8 161-71 64-61 101-154 111-278l20 0c-10 130-50 229-117 293z m-49-104c-58 59-123 55-126 55l1-20c1 0 60 3 111-50 37-39 61-98 72-174l20 0c-2 22-6 44-12 63-14 53-36 95-66 126z m145 45c-28 52-66 94-112 124-79 51-155 50-159 50l1-20c1 0 73 0 147-47 97-63 152-181 161-341l20 0c-5 92-25 171-58 234z m-119-16c-68 70-148 66-152 66l1-21c1 1 75 4 137-59 45-46 66-115 76-204l20 0c-3 33-7 64-15 92-16 52-36 94-67 126z m-152 108l1-21c1 0 82 2 151-67 54-53 82-133 92-238l20 0c-11 111-41 196-98 253-75 75-162 73-166 73z m386-137c58 59 123 55 126 55l-1-20c-1 0-60 3-111-50-37-39-61-98-72-174l-20 0c2 22 7 44 12 63 14 53 37 95 66 126z m-54 104c82 79 176 77 180 76l-1-20c-1 0-89 3-166-71-63-61-100-154-111-278l-20 0c11 130 50 229 118 293z m-90-59c27 52 65 94 111 124 80 51 155 50 159 50l-1-20c-1 0-73 0-147-47-97-63-152-181-160-341l-20 0c4 92 24 171 58 234z m118-16c68 70 149 66 152 66l-1-21c-1 1-75 4-137-59-45-46-72-115-82-204l-20 0c4 33 10 65 18 93 15 51 39 93 70 125z m152 108l-1-21c-1 0-82 2-151-67-53-53-86-133-96-238l-20 0c11 111 45 196 102 253 75 75 162 73 166 73z"/>
<glyph unicode="&#99;" d="M256 0c-4 0-8 2-12 5-9 7-219 189-219 314 0 31 6 62 18 91 4 9 14 13 23 10 15-5 30-7 45-7 58 0 108 34 130 87 3 7 10 12 17 12 8 0 15-5 18-12 21-53 72-87 130-87 14 0 27 2 41 6 9 3 19-2 23-11 12-28 17-58 17-89 0-125-210-307-218-314-4-3-9-5-13-5z m-184 380c-7-20-10-40-10-61 0-83 130-218 194-275 64 57 194 192 194 275 0 20-3 40-9 60-12-3-23-4-35-4-61 0-115 30-148 79-32-49-87-79-147-79-13 0-26 2-39 5z m139-97c-37 35-78 39-89 39l0-11c10 0 48-3 82-36 32-30 52-77 57-140l10 0c-6 66-25 115-60 148z m-25-53c-30 31-63 29-64 29l1-11c0 0 30 2 56-25 19-20 31-49 37-88l10 0c-1 11-4 22-6 32-7 27-19 48-34 63z m74 23c-14 27-33 48-57 63-40 26-79 26-81 26l0-11c1 0 37 0 75-24 50-32 78-91 82-172l11 0c-3 46-13 86-30 118z m-61-8c-34 36-75 34-77 34l1-11c0 0 38 2 69-30 23-23 34-58 39-103l10 0c-2 17-3 32-7 46-8 26-19 48-35 64z m-77 55l1-11c0 0 41 1 76-34 28-27 42-67 48-120l10 0c-6 56-21 99-50 128-39 38-83 37-85 37z m197-70c29 31 63 29 64 29l-1-11c0 0-30 2-56-25-19-20-31-49-37-88l-10 0c1 11 3 22 6 32 8 27 19 48 34 63z m-28 53c42 40 90 39 92 39l0-11c-1 0-46 2-85-36-32-30-51-77-57-140l-10 0c6 66 26 115 60 148z m-46-30c14 27 34 48 57 63 41 26 79 26 81 26l0-11c-1 0-38 0-76-24-49-32-77-91-81-172l-11 0c3 46 13 86 30 118z m60-8c35 36 76 34 78 34l0-11c-1 0-39 2-70-30-23-23-37-58-42-103l-10 0c1 17 4 32 9 47 8 26 20 47 35 63z m78 55l0-11c-1 0-42 1-78-34-27-27-43-67-48-120l-10 0c5 56 22 99 51 128 39 38 83 37 85 37z"/>
<glyph unicode="&#104;" d="M58 256c0-6 3-12 7-16l124-130c4-4 9-6 14-6 12 0 21 10 21 22 0 6-2 11-6 15l-88 92 301 0c13 0 23 10 23 23 0 13-10 23-23 23l-301 0 87 91c4 4 7 10 7 16 0 12-9 22-21 22-5 0-10-2-14-6l0 0-124-130c-4-4-7-10-7-16 0 0 0 0 0 0z"/>
<glyph unicode="&#105;" d="M454 256c0 6-3 12-7 16l-124 130 0 0c-4 4-9 6-14 6-12 0-21-10-21-22 0-6 3-12 7-16l87-91-301 0c-13 0-23-10-23-23 0-13 10-23 23-23l301 0-88-92c-4-4-6-10-6-15 0-12 9-22 21-22 5 0 10 2 14 6l124 130c4 4 7 10 7 16 0 0 0 0 0 0z"/>
<glyph unicode="&#106;" d="M256 0c-141 0-256 115-256 256 0 141 115 256 256 256 141 0 256-115 256-256 0-141-115-256-256-256z m0 474c-120 0-218-98-218-218 0-120 98-218 218-218 120 0 218 98 218 218 0 120-98 218-218 218z m-69-356c-3 0-7 1-10 3-6 3-9 9-9 16l0 238c0 7 3 13 9 16 6 4 13 4 19 0l206-119c6-3 10-9 10-16 0-7-4-13-10-16l-206-119c-3-2-6-3-9-3z m19 224l0-172 149 86z"/>
<glyph unicode="&#107;" d="M372 369l-3 3c-7 7-17 7-24 0l-89-89-89 89c-7 7-17 7-24 0l-3-3c-7-7-7-17 0-24l89-89-89-89c-7-7-7-17 0-24l3-3c7-7 17-7 24 0l89 89 89-89c7-7 17-7 24 0l3 3c7 7 7 17 0 24l-89 89 89 89c7 7 7 17 0 24z m-116 143c-141 0-256-115-256-256 0-141 115-256 256-256 141 0 256 115 256 256 0 141-115 256-256 256z m0-474c-120 0-218 98-218 218 0 120 98 218 218 218 120 0 218-98 218-218 0-120-98-218-218-218z"/>
<glyph unicode="&#108;" d="M375 290c-6 7-17 7-23 1l-74-72-118 117c-6 7-17 7-23 0l-4-3c-7-7-7-17 0-24l127-127c1-1 1-2 2-3l4-3c3-4 7-5 12-5 4 0 9 1 12 5l4 3c0 1 1 2 1 2l84 82c7 7 7 17 0 24z m-119 222c-141 0-256-115-256-256 0-141 115-256 256-256 141 0 256 115 256 256 0 141-115 256-256 256z m0-474c-120 0-218 98-218 218 0 120 98 218 218 218 120 0 218-98 218-218 0-120-98-218-218-218z"/>
<glyph unicode="&#109;" d="M494 57l-145 144c27 33 43 75 43 120 0 105-86 191-192 191-106 0-192-86-192-191 0-105 86-191 192-191 36 0 70 10 99 27 0 0 0 0 0 0l148-147c6-7 15-10 23-10 9 0 17 3 24 10 13 13 13 34 0 47z m-446 264c0 83 68 151 152 151 84 0 152-68 152-151 0-83-68-151-152-151-84 0-152 68-152 151z"/>
<glyph unicode="&#110;" d="M491 429l-470 0c-12 0-21-9-21-21l0-304c0-12 9-21 21-21l470 0c12 0 21 10 21 21l0 304c0 12-9 21-21 21z m-63-42l-172-172-171 172z m-386-262l0 247c1-1 1-3 2-4l197-198c4-4 10-6 15-6 6 0 11 2 15 6l197 198c1 1 1 2 2 4l0-247z"/>
<glyph unicode="&#111;" d="M460 303c0 6-1 11-5 15l-185 188c-7 8-21 8-28 0l-184-188c-4-4-6-9-6-13 0-2-1-3-1-4l0-282c0-10 9-19 20-19l370 0c11 0 20 9 20 19l0 282c0 1-1 2-1 2z m-204 162l142-145-284 0z m-48-427l0 139 99 0 0-139z m213 0l-75 0 0 158c0 11-8 19-19 19l-139 0c-11 0-19-8-19-19l0-158-78 0 0 244 330 0z"/>
<glyph unicode="&#112;" d="M482 46c-4 0-7 1-11 4-9 5-11 17-6 26 6 9 8 18 8 28 0 30-74 106-103 106-11 0-19 8-19 19 0 11 8 19 19 19 50 0 142-93 142-144 0-17-5-34-14-49-4-5-10-9-16-9z m-262 92c-68 0-123 69-123 153 0 85 55 154 123 154 67 0 122-69 122-154 0-84-55-153-122-153z m0 268c-47 0-85-52-85-115 0-63 38-115 85-115 46 0 84 52 84 115 0 63-38 115-84 115z m162-73c-11 0-19 8-19 19 0 63-38 115-84 115-11 0-20 8-20 19 0 11 9 20 20 20 67 0 122-69 122-154 0-11-8-19-19-19z m-352-327c-6 0-12 4-16 9-9 15-14 32-14 49 0 51 92 143 142 143 11 0 19-9 19-19 0-11-8-20-19-20-29 0-103-75-103-104 0-10 2-19 8-28 5-9 3-21-6-27-3-2-7-3-11-3z m377 1c-4 0-7 1-10 3-9 5-12 17-6 26 5 9 8 18 8 28 0 30-75 106-104 106-10 0-19 8-19 19 0 11 9 19 19 19 51 0 142-93 142-144 0-17-5-34-14-48-3-6-10-9-16-9z m0-1l-377 0c-10 0-19 9-19 20 0 11 9 19 19 19l377 0c11 0 19-8 19-19 0-11-8-20-19-20z"/>
<glyph unicode="&#113;" d="M300 0c-1 0-1 0-2 0-13 1-23 11-26 23l-41 208-208 42c-13 2-22 13-23 25-1 13 6 25 18 29l455 183c10 4 23 2 31-7 8-8 10-20 6-30l-183-455c-5-11-15-18-27-18z m-172 310l133-27c11-2 20-11 22-23l27-132 122 304z"/>
<glyph unicode="&#114;" d="M402 416l-40 0c-6 0-11 6-11 14l0 36c0 25-20 46-44 46l-197 0c-24 0-43-21-43-46l0-420c0-25 19-46 43-46l292 0c24 0 43 21 43 46l0 324c0 25-19 46-43 46z m12-370c0-8-6-14-12-14l-292 0c-6 0-12 6-12 14l0 420c0 8 6 14 12 14l197 0c7 0 12-6 12-14l0-36c0-25 20-46 43-46l40 0c6 0 12-6 12-14l0-324z m-268 306l126 0c8 0 16 7 16 16 0 9-8 16-16 16l-126 0c-9 0-16-7-16-16 0-9 7-16 16-16z m220-32l-220 0c-9 0-16-7-16-16 0-9 7-16 16-16l220 0c9 0 16 7 16 16 0 9-7 16-16 16z m0-64l-220 0c-9 0-16-7-16-16 0-9 7-16 16-16l220 0c9 0 16 7 16 16 0 9-7 16-16 16z m0-64l-220 0c-9 0-16-7-16-16 0-9 7-16 16-16l220 0c9 0 16 7 16 16 0 9-7 16-16 16z m0-64l-220 0c-9 0-16-7-16-16 0-9 7-16 16-16l220 0c9 0 16 7 16 16 0 9-7 16-16 16z"/>
<glyph unicode="&#115;" d="M256 512c-106 0-192-85-192-192 0-112 96-227 166-307 0 0 11-13 25-13l2 0c13 0 25 13 25 13 70 80 166 195 166 307 0 107-86 192-192 192z m2-478c0 0-1-1-2-2 0 1-2 2-2 2-59 68-158 182-158 286 0 88 72 160 160 160 88 0 160-72 160-160 0-104-99-218-158-286z m-2 154c-69 0-126 56-126 125 0 70 57 126 126 126 69 0 126-56 126-126 0-69-57-125-126-125z m0 216c-50 0-91-41-91-91 0-50 41-90 91-90 50 0 91 40 91 90 0 50-41 91-91 91z"/>
<glyph unicode="&#116;" d="M508 287l-32 32c-4 5-12 5-16 0l-199-200c-4-4-4-12 0-16l8-8-12-12c-5-5-5-12 0-17 5-4 12-4 16 0l12 12 8-7c5-5 12-5 17 0l198 200c5 4 5 12 0 16z m-25-8l-15-16-16 16 16 16z m-197-168l150 151 15-15-150-152z m222 176l-32 32c-4 5-12 5-16 0l-199-200c-4-4-4-12 0-16l8-8-12-12c-5-5-5-12 0-17 5-4 12-4 16 0l12 12 8-7c5-5 12-5 17 0l198 200c5 4 5 12 0 16z m-25-8l-15-16-16 16 16 16z m-197-168l150 151 15-15-150-152z m-59 20l-150 0c-8 0-15-7-15-16 0-9 7-16 15-16l150 0c8 0 15 7 15 16 0 9-7 16-15 16z m-150 156l215 0c8 0 15 7 15 16 0 9-7 16-15 16l-215 0c-8 0-15-7-15-16 0-9 7-16 15-16z m150-94l-150 0c-8 0-15-7-15-15 0-9 7-16 15-16l150 0c8 0 15 7 15 16 0 8-7 15-15 15z m-150 157l123 0c8 0 15 7 15 16 0 8-7 15-15 15l-123 0c-8 0-15-7-15-15 0-9 7-16 15-16z m150-94l-150 0c-8 0-15-7-15-16 0-8 7-15 15-15l150 0c8 0 15 7 15 15 0 9-7 16-15 16z m111-206c0-7-6-13-12-13l-283 0c-7 0-12 6-12 13l0 412c0 7 5 13 12 13l191 0c6 0 12-6 12-13l0-36c0-25 19-45 42-45l38 0c6 0 12-6 12-13l0-142 30 31 0 111c0 24-19 45-42 45l-38 0c-7 0-12 6-12 13l0 36c0 24-19 45-42 45l-191 0c-24 0-43-21-43-45l0-412c0-24 19-45 43-45l283 0c23 0 42 21 42 45l0 50-30-31 0-19z"/>
<glyph unicode="&#117;" d="M381 0l-314 0c-10 0-17 7-17 17l0 416c0 9 7 17 17 17l314 0c9 0 16-8 16-17l0-416c0-10-7-17-16-17z m-298 33l281 0 0 384-281 0z m239 159l-197 0c-9 0-17 7-17 16 0 10 8 17 17 17l197 0c9 0 16-7 16-17 0-9-7-16-16-16z m0-49l-197 0c-9 0-17 7-17 16 0 9 8 17 17 17l197 0c9 0 16-8 16-17 0-9-7-16-16-16z m0-56l-197 0c-9 0-17 8-17 17 0 9 8 16 17 16l197 0c9 0 16-7 16-16 0-9-7-17-16-17z m-124 425l247 0c9 0 17-7 17-17l0-416c0-9-7-17-17-17-9 0-16 8-16 17l0 400-231 0c-9 0-16 7-16 16 0 10 7 17 16 17z m11-245l-81 0c-9 0-16 8-16 17l0 81c0 9 7 16 16 16l81 0c10 0 17-7 17-16l0-81c0-9-7-17-17-17z m-64 33l48 0 0 48-48 0z"/>
<glyph unicode="&#118;" d="M287 376c37 26 78 66 72 100-2 12-11 27-40 33-19 3-35-3-48-16-9-10-15-24-18-38-6 18-13 34-23 44-11 11-21 13-28 13-12 0-24-7-36-20-11-13-16-28-13-44 7-31 41-58 65-73-84-30-139-156-139-228 1-84 76-147 176-147l2 0c49 0 93 16 126 44 32 28 50 66 50 106-1 72-59 199-146 226z m6 97c4 5 9 7 15 7 2 0 4 0 6-1 4 0 15-3 16-8 2-13-21-42-54-67 0 24 4 55 17 69z m-111-19c-1 4-1 10 6 19 8 9 13 9 14 9 2 0 5-2 7-3 11-12 21-44 24-79-21 14-47 35-51 54z m182-388c-27-23-65-36-108-36l-1 0c-83 0-146 50-146 118-1 69 60 203 146 204 83 0 148-135 148-202 1-32-13-61-39-84z m-64 120c-4 4-8 6-14 8-5 2-12 5-21 7l0 45c9-3 15-9 17-18 2-8 7-12 14-12 3 0 7 2 9 4 3 3 4 6 4 10 0 3-1 6-3 10-1 4-4 8-7 11-4 5-9 9-14 11-6 3-12 4-20 5l0 11c0 6-2 9-6 9-5 0-7-3-7-9l0-11c-15-1-26-6-34-14-7-8-11-18-11-30 0-9 2-17 6-23 4-6 9-11 15-14 6-3 14-6 24-9l0-50c-5 2-9 4-12 6-2 3-5 6-6 9-1 3-3 7-5 13-1 3-2 5-5 7-2 1-4 2-8 2-4 0-7-2-10-4-2-3-3-6-3-10 0-4 0-9 2-14 2-5 6-9 10-14 4-4 9-8 15-11 6-3 14-5 22-6l0-29c0-3 0-5 1-7 1-1 3-2 6-2 3 0 4 1 5 3 1 2 1 5 1 9l0 27c10 0 19 3 27 8 7 4 13 10 16 17 4 7 6 15 6 23 0 6-1 12-4 18-2 5-5 10-10 14z m-48 19c-6 2-11 5-14 8-3 3-5 7-5 13 0 6 2 10 5 13 3 3 8 5 14 7z m30-70c-4-4-9-7-17-9l0 47c8-2 13-5 17-8 4-4 6-9 6-15 0-6-2-11-6-15z"/>
<glyph unicode="&#119;" d="M393 512l-274 0c-10 0-18-8-18-18l0-476c0-10 8-18 18-18l274 0c10 0 18 8 18 18l0 476c0 10-8 18-18 18z m-257-151l240 0 0-214-240 0z m0 112l240 0 0-76-240 0z m240-437l-240 0 0 76 240 0z m-72 415l-96 0c-10 0-18-8-18-18 0-9 8-17 18-17l96 0c10 0 18 8 18 17 0 10-8 18-18 18z m-26-377c0 12-10 22-22 22-12 0-22-10-22-22 0-13 10-23 22-23 12 0 22 10 22 23z"/>
<glyph unicode="&#120;" d="M408 0l-304 0c-44 0-80 36-80 81l0 286c0 44 36 81 80 81l304 0c44 0 80-37 80-81l0-286c0-45-36-81-80-81z m-304 419c-29 0-52-23-52-52l0-286c0-29 23-52 52-52l304 0c29 0 52 23 52 52l0 286c0 29-23 52-52 52l-304 0z m74-159l-40 0c-7 0-12 6-12 13l0 24c0 7 5 13 12 13l40 0c7 0 13-6 13-13l0-24c0-7-6-13-13-13z m-6 239l0-103c0-7-5-13-12-13l-4 0c-7 0-12 6-12 13l0 103c0 7 5 13 12 13l4 0c7 0 12-6 12-13z m203 0l0-103c0-7-6-13-12-13l-4 0c-7 0-13 6-13 13l0 103c0 7 6 13 13 13l4 0c6 0 12-6 12-13z m-95-239l-40 0c-7 0-13 6-13 13l0 24c0 7 6 13 13 13l40 0c7 0 12-6 12-13l0-24c0-7-5-13-12-13z m101 0l-40 0c-7 0-13 6-13 13l0 24c0 7 6 13 13 13l40 0c7 0 12-6 12-13l0-24c0-7-5-13-12-13z m-203-76l-40 0c-7 0-12 6-12 13l0 24c0 7 5 12 12 12l40 0c7 0 13-5 13-12l0-24c0-7-6-13-13-13z m102 0l-40 0c-7 0-13 6-13 13l0 24c0 7 6 12 13 12l40 0c7 0 12-5 12-12l0-24c0-7-5-13-12-13z m101 0l-40 0c-7 0-13 6-13 13l0 24c0 7 6 12 13 12l40 0c7 0 12-5 12-12l0-24c0-7-5-13-12-13z m-203-76l-40 0c-7 0-12 6-12 13l0 24c0 7 5 12 12 12l40 0c7 0 13-5 13-12l0-24c0-7-6-13-13-13z m102 0l-40 0c-7 0-13 6-13 13l0 24c0 7 6 12 13 12l40 0c7 0 12-5 12-12l0-24c0-7-5-13-12-13z m101 0l-40 0c-7 0-13 6-13 13l0 24c0 7 6 12 13 12l40 0c7 0 12-5 12-12l0-24c0-7-5-13-12-13z"/>
<glyph unicode="&#121;" d="M493 56l-474 0c-10 0-19 9-19 19l0 362c0 10 9 19 19 19l474 0c10 0 19-9 19-19l0-362c0-10-9-19-19-19z m-455 39l436 0 0 322-436 0z m218 10c-4 0-7 1-11 3l-186 132c-5 3-8 9-8 16 0 7 3 13 8 16l186 132c7 4 15 4 22 0l186-132c5-3 8-9 8-16 0-7-3-13-8-16l-186-132c-3-2-7-3-11-3z m-152 151l152-108 152 108-152 108z m152-74c-39 0-71 33-71 74 0 41 32 74 71 74 39 0 71-33 71-74 0-41-32-74-71-74z m0 108c-18 0-33-15-33-34 0-19 15-34 33-34 18 0 33 15 33 34 0 19-15 34-33 34z"/>
<glyph unicode="&#100;" d="M219 397c0 0 116-121 116-121 5-5 8-12 8-20 0-8-3-14-8-19 0 0-116-121-116-121-5-6-12-8-20-8-9 0-15 2-21 8-12 12-12 26 0 41 0 0 95 99 95 99 0 0-95 100-95 100-12 15-12 29 0 41 6 6 13 9 21 9 9 0 15-3 20-9"/>
<glyph unicode="&#101;" d="M293 397c4 6 11 9 20 9 8 0 15-3 21-9 13-12 13-26 0-41 0 0-96-100-96-100 0 0 96-99 96-99 13-15 13-29 0-41-6-6-13-8-21-8-8 0-15 2-20 8 0 0-116 121-116 121-6 5-8 11-8 19 0 8 2 15 8 20 70 74 109 114 116 121"/>
<glyph unicode="&#102;" d="M396 293c0 0-120-115-120-115-6-6-12-9-20-9-8 0-14 3-20 9 0 0-120 115-120 115-6 5-8 12-8 21 0 8 2 15 8 21 13 13 26 13 40 0 0 0 100-96 100-96 0 0 100 96 100 96 14 13 27 13 40 0 6-6 8-13 8-21 0-9-2-16-8-21"/>
<glyph unicode="&#103;" d="M396 220c6-5 8-12 8-21 0-8-2-15-8-21-13-13-26-13-40 0 0 0-100 96-100 96 0 0-100-96-100-96-14-13-27-13-40 0-6 6-8 13-8 21 0 9 2 16 8 21 0 0 120 115 120 115 5 5 12 8 20 8 8 0 15-3 20-8 0 0 120-115 120-115"/>
<glyph unicode="&#122;" d="M367 176c6-6 9-13 9-22 0-8-3-16-9-22-6-5-13-8-22-8-8 0-16 3-22 8 0 0-68 78-68 78 0 0-67-78-67-78-6-5-14-8-22-8-9 0-16 3-22 8-6 6-8 14-8 22 0 9 2 16 8 22 0 0 71 80 71 80 0 0-71 81-71 81-6 6-8 13-8 22 0 8 2 16 8 22 6 5 13 8 22 8 8 0 16-3 22-8 0 0 67-78 67-78 0 0 68 78 68 78 6 5 14 8 22 8 9 0 16-3 22-8 6-6 9-14 9-22 0-9-3-16-9-22 0 0-71-81-71-81 0 0 71-80 71-80"/>
<glyph unicode="&#65;" d="M410 282c7 0 13-3 18-8 5-5 7-11 7-18 0-7-2-13-7-18-6-5-12-8-18-8 0 0-308 0-308 0-6 0-12 3-18 8-5 5-7 11-7 18 0 7 2 13 7 18 5 5 11 8 18 8 0 0 308 0 308 0m-308 51c-6 0-12 2-18 7-5 6-7 12-7 18 0 7 2 13 7 18 5 5 11 8 18 8 0 0 308 0 308 0 7 0 13-3 18-8 5-5 7-11 7-18 0-6-2-12-7-18-6-5-12-7-18-7 0 0-308 0-308 0m308-154c7 0 13-2 18-7 5-6 7-12 7-18 0-7-2-13-7-18-6-5-12-8-18-8 0 0-308 0-308 0-6 0-12 3-18 8-5 5-7 11-7 18 0 6 2 12 7 18 5 5 11 7 18 7 0 0 308 0 308 0"/>
<glyph unicode="&#66;" d="M192 92c-11 0-22 5-30 13l-121 118c-17 17-17 43 0 59 16 16 43 16 59 0l92-90 220 215c16 17 43 17 59 0 17-16 17-42 0-58l-249-244c-8-8-19-13-30-13z"/>
<glyph unicode="&#67;" d="M256 512c-141 0-256-115-256-256 0-141 115-256 256-256 141 0 256 115 256 256 0 141-115 256-256 256z m0-472c-119 0-216 97-216 216 0 119 97 216 216 216 119 0 216-97 216-216 0-119-97-216-216-216z m-16 237l6-85 20 0 6 86 0 106-32 0z m0-117l32 0 0-32-32 0z"/>
<glyph unicode="&#68;" d="M389 282c10 0 15-9 15-26 0-17-5-26-15-26 0 0-107 0-107 0 0 0 0-107 0-107 0-10-9-15-26-15-17 0-26 5-26 15 0 0 0 107 0 107 0 0-107 0-107 0-10 0-15 9-15 26 0 17 5 26 15 26 0 0 107 0 107 0 0 0 0 107 0 107 0 10 9 15 26 15 17 0 26-5 26-15 0 0 0-107 0-107 0 0 107 0 107 0"/>
<glyph unicode="&#69;" d="M389 282c10 0 15-9 15-26 0-17-5-26-15-26 0 0-266 0-266 0-10 0-15 9-15 26 0 17 5 26 15 26 0 0 266 0 266 0"/>
<glyph unicode="&#70;" d="M256 58c6 0 12 3 16 7l130 124 0 0c4 4 6 9 6 14 0 12-10 21-22 21-6 0-12-3-16-7l-91-87 0 301c0 13-10 23-23 23-13 0-23-10-23-23l0-301-92 88c-4 4-10 6-15 6-12 0-22-9-22-21 0-5 2-10 6-14l130-124c4-4 10-7 16-7 0 0 0 0 0 0z"/>
<glyph unicode="&#71;" d="M256 454c-6 0-12-3-16-7l-130-124 0 0c-4-4-6-9-6-14 0-12 10-21 22-21 6 0 12 3 16 7l91 87 0-301c0-13 10-23 23-23 13 0 23 10 23 23l0 301 92-88c4-4 10-6 15-6 12 0 22 9 22 21 0 5-2 10-6 14l-130 124c-4 4-10 7-16 7 0 0 0 0 0 0z"/>
</font>
</defs>
</svg>
